<?xml version="1.0" encoding="UTF-8" standalone="no"?>
<!-- Created with Inkscape (http://www.inkscape.org/) -->

<svg
   version="1.1"
   id="svg5"
   width="2000"
   height="2000"
   viewBox="0 0 2000 2000"
   sodipodi:docname="Tarid Logo.svg"
   inkscape:version="1.2.2 (732a01da63, 2022-12-09)"
   xmlns:inkscape="http://www.inkscape.org/namespaces/inkscape"
   xmlns:sodipodi="http://sodipodi.sourceforge.net/DTD/sodipodi-0.dtd"
   xmlns="http://www.w3.org/2000/svg"
   xmlns:svg="http://www.w3.org/2000/svg">
  <defs
     id="defs9" />
  <sodipodi:namedview
     id="namedview7"
     pagecolor="#ffffff"
     bordercolor="#000000"
     borderopacity="0.25"
     inkscape:showpageshadow="2"
     inkscape:pageopacity="0.0"
     inkscape:pagecheckerboard="0"
     inkscape:deskcolor="#d1d1d1"
     showgrid="false"
     inkscape:zoom="0.15273506"
     inkscape:cx="-841.32612"
     inkscape:cy="1312.7306"
     inkscape:window-width="1920"
     inkscape:window-height="1051"
     inkscape:window-x="-9"
     inkscape:window-y="-9"
     inkscape:window-maximized="1"
     inkscape:current-layer="g11" />
  <g
     inkscape:groupmode="layer"
     inkscape:label="Image"
     id="g11">
    <path
       style="fill:#c6dbed"
       d="M 0,1000 V 0 H 1000 2000 V 1000 2000 H 1000 0 Z"
       id="path127" />
    <path
       style="fill:#5696ce"
       d="M 0,1000 V 0 h 1000 1000 v 574 c 0,315.7 -0.2793,574 -0.6207,574 -0.3414,0 -5.6289,-4.1534 -11.75,-9.2297 C 1805.423,987.663 1625.081,845.75572 1476.3968,736.4923 l -10.8968,-8.0077 -12.0678,-29.4923 c -6.6373,-16.22077 -12.5737,-29.4923 -13.192,-29.4923 -0.6183,0 -5.2642,5.32615 -10.3242,11.83588 -5.06,6.50973 -9.7933,12.06355 -10.5185,12.34181 -0.7251,0.27827 -14.9487,-9.1417 -31.608,-20.93326 C 1292.8809,605.56728 1177.4765,529 1171.1338,529 c -2.2139,0 -2.3632,0.18576 -1.0981,1.36598 0.8054,0.75129 13.3893,8.94493 27.9643,18.20808 65.5793,41.67899 218,146.22957 218,149.53366 0,0.5819 -3.881,6.00475 -8.6244,12.05078 -4.7433,6.04604 -8.2308,11.35059 -7.75,11.7879 0.4809,0.4373 15.2113,2.87824 32.7341,5.4243 l 31.8597,4.6292 20.6403,15.19613 c 138.3572,101.86353 312.1676,238.59718 482.3081,379.42347 17.4172,14.4164 31.9297,25.9496 32.25,25.6294 0.3202,-0.3202 0.5822,190.2928 0.5822,423.5844 L 2000,2000 H 1000 0 Z m 943,552.0538 c 0,-0.5204 -17.89934,-36.8579 -39.77631,-80.75 C 841.54148,1347.5499 800.89732,1261.858 756.99338,1163 649.92455,921.91432 585.606,732.22732 565.03001,596.86545 550.1059,498.6852 556.91614,430.18135 586.0427,385.5 c 6.12869,-9.40165 20.79997,-24.38145 29.8232,-30.45033 15.03764,-10.11408 34.65197,-17.22466 56.41437,-20.45131 12.4386,-1.84423 39.19888,-2.12386 54.86378,-0.57329 62.96106,6.23215 138.22397,31.84643 239.83425,81.62297 19.19334,9.40238 30.35811,14.33803 32,14.14635 3.0231,-0.35292 -13.11856,-9.00137 -48.30928,-25.88338 C 836.6769,349.22566 745.87912,324.2184 682,329.91494 c -77.62038,6.92196 -119.65657,55.75075 -127.0689,147.60191 -2.21835,27.48905 -0.32376,71.66309 4.58714,106.95331 24.21036,173.97795 118.07894,429.19124 286.53058,779.02984 33.70709,70.0025 93.88745,189.5 95.43448,189.5 0.83418,0 1.5167,-0.4258 1.5167,-0.9462 z"
       id="path125" />
    <path
       style="fill:#0061b5"
       d="M 0,1000 V 0 H 1000 2000 V 574.14602 1148.292 l -2.25,-2.4147 c -1.2375,-1.3281 -22.5,-19.0808 -47.25,-39.4504 C 1786.512,971.46195 1646.4062,861.08854 1520,767.28496 c -23.925,-17.75428 -45.75,-34.0014 -48.5,-36.1047 -4.9176,-3.76117 -5.1468,-4.18559 -13.9064,-25.75223 C 1443.2611,670.14067 1441.8664,667 1440.5289,667 c -0.699,0 -5.6247,5.61125 -10.946,12.46945 -5.3213,6.8582 -9.9918,12.65972 -10.379,12.89227 -0.3871,0.23255 -14.4289,-9.28648 -31.2039,-21.15339 C 1324.7832,626.48775 1248.763,575.1197 1198.5752,543.21104 1178.6202,530.52396 1174.0254,528 1170.8842,528 c -2.0714,0 -4.0116,0.39715 -4.3116,0.88256 -0.3,0.48541 11.0359,8.24306 25.191,17.23923 51.3944,32.66349 119.3622,78.43947 180.2364,121.38837 39.4704,27.8478 42.0002,29.71038 41.9982,30.92128 -10e-4,0.58771 -3.826,5.95558 -8.5,11.9286 -8.4936,10.85423 -9.2154,12.07865 -7.6798,13.02775 0.4502,0.2782 15.1877,2.60008 32.75,5.15974 17.5624,2.55967 32.8069,5.12142 33.8767,5.69279 4.4774,2.39138 90.2957,66.52398 143.5549,107.27966 108.0546,82.68687 243.0413,190.54542 363.1727,290.18632 14.1199,11.7115 26.3824,21.2937 27.25,21.2937 1.4339,0 1.5773,38.4949 1.5773,423.5 V 2000 H 1000 0 Z m 943.90951,553.609 c 0.9138,-1.101 -6.83144,-17.4098 -37.16188,-78.25 C 885.67367,1433.0866 860.84095,1382.75 851.5638,1363.5 667.75898,982.10654 571.88602,711.22828 559.92238,539.5 c -1.31864,-18.92802 -0.70435,-62.02714 1.06897,-75 5.77823,-42.27097 18.24099,-72.24782 39.04667,-93.91951 18.84341,-19.62773 42.87935,-30.63443 76.96198,-35.24294 14.36219,-1.942 42.05752,-1.23759 62.5,1.58963 62.59857,8.65747 141.13606,36.82715 238.30213,85.47376 12.88492,6.45089 18.16294,8.59906 21.12774,8.59906 2.17363,0 4.20553,-0.41005 4.51523,-0.91123 0.6608,-1.06918 -23.55785,-13.81465 -52.10362,-27.42039 C 865.55681,361.78093 798.94862,339.08893 739,330.32814 c -17.59039,-2.57063 -59.31152,-2.58465 -73,-0.0245 -12.72934,2.38074 -31.61523,8.79614 -41.72215,14.17272 -67.59814,35.96019 -87.47135,129.05779 -59.71166,279.72393 31.47809,170.84782 122.34335,411.17181 278.013,735.29971 17.67234,36.7965 95.0321,192.2946 96.63867,194.25 1.34999,1.6431 3.25862,1.5857 4.69165,-0.141 z"
       id="path123" />
    <path
       style="fill:#000103"
       d="m 946.75237,1576.7587 c -0.1362,-0.1423 -0.4737,-236.0587 -0.75,-524.2587 l -0.50237,-524 -183,-0.5 -183,-0.5 v -48 -48 h 420.5 420.5 v 48 48 l -181.4825,0.23224 c -99.8154,0.12774 -182.0525,0.45095 -182.7491,0.71825 -1.0193,0.39117 -1.3155,102.70474 -1.5175,524.26781 L 1054.5,1576.5 l -53.75,0.2587 c -29.5625,0.1423 -53.86143,0.1423 -53.99763,0 z"
       id="path121" />
  </g>
</svg>
