<?xml version="1.0" encoding="UTF-8" standalone="no"?>
<!-- Created with Inkscape (http://www.inkscape.org/) -->

<svg
   version="1.1"
   id="svg207"
   width="2000"
   height="2000"
   viewBox="0 0 2000 2000"
   sodipodi:docname="logo2.svg"
   inkscape:version="1.2.2 (732a01da63, 2022-12-09)"
   xmlns:inkscape="http://www.inkscape.org/namespaces/inkscape"
   xmlns:sodipodi="http://sodipodi.sourceforge.net/DTD/sodipodi-0.dtd"
   xmlns="http://www.w3.org/2000/svg"
   xmlns:svg="http://www.w3.org/2000/svg">
  <defs
     id="defs211" />
  <sodipodi:namedview
     id="namedview209"
     pagecolor="#ffffff"
     bordercolor="#000000"
     borderopacity="0.25"
     inkscape:showpageshadow="2"
     inkscape:pageopacity="0.0"
     inkscape:pagecheckerboard="0"
     inkscape:deskcolor="#d1d1d1"
     showgrid="false"
     inkscape:zoom="0.30547013"
     inkscape:cx="738.20638"
     inkscape:cy="1219.4318"
     inkscape:window-width="1920"
     inkscape:window-height="1051"
     inkscape:window-x="-9"
     inkscape:window-y="-9"
     inkscape:window-maximized="1"
     inkscape:current-layer="g213" />
  <g
     inkscape:groupmode="layer"
     inkscape:label="Image"
     id="g213">
    <path
       style="fill:#f2f6fa"
       d="M 0,1000 V 0 H 1000 2000 V 1000 2000 H 1000 0 Z"
       id="path225" />
    <path
       style="fill:#5696ce"
       d="M 0,1000 V 0 H 1000 2000 V 569.11501 1138.23 l -2.5164,-1.6488 c -1.3839,-0.9068 -15.4464,-12.339 -31.25,-25.4049 C 1818.3939,988.94678 1680.9314,880.14696 1547.5,779.75415 l -38,-28.59093 -30.4105,-64.33161 c -16.7257,-35.38239 -30.9354,-64.91271 -31.577,-65.62294 -0.9203,-1.01873 -5.5426,4.31158 -21.8959,25.25 C 1414.2155,661.0564 1404.2077,673 1403.3769,673 c -0.8307,0 -15.5429,-9.83504 -32.6936,-21.85565 C 1312.2682,610.20253 1264.1693,577.76312 1213,544.79776 l -24.5,-15.78391 -17.5,0.0376 c -15.9675,0.0343 -17.3249,0.1726 -15.5,1.5791 1.1,0.84783 15.5,10.09416 32,20.5474 65.9009,41.75021 201.9584,134.41879 203.2159,138.41013 0.1886,0.59845 -7.3305,10.91803 -16.7091,22.93239 -9.3785,12.01437 -16.9013,22.29598 -16.7173,22.84803 0.184,0.55206 30.74,7.15106 67.9022,14.66445 37.1622,7.51339 68.2722,13.93106 69.1333,14.2615 1.6281,0.62476 53.2905,39.21044 93.175,69.59065 112.7463,85.8794 255.5568,199.7388 376.8232,300.432 l 28.8233,23.9333 3.4267,-3.3214 3.4268,-3.3213 V 1575.8038 2000 H 1000 0 V 999.99998 Z m 945.23469,550.6189 c 0.40408,-0.6154 0.74158,-3.2422 0.75,-5.8375 0.0136,-4.1927 -3.11883,-10.9907 -28.10761,-61 C 721.52855,1090.8357 610.98186,810.38065 576.02164,616.5 568.2425,573.35884 565.5065,544.76228 565.54512,507 c 0.0328,-32.0426 1.09268,-44.37544 5.53363,-64.3877 22.46882,-101.25124 105.46035,-127.15722 253.13984,-79.01813 38.14632,12.43456 93.94292,35.99095 141.01808,59.53547 L 978.97334,430 h 19.01333 C 1008.444,430 1017,429.63893 1017,429.19761 1017,428.1669 953.61617,396.45463 932,386.67032 855.83223,352.19384 793.50978,331.96428 740.23084,324.423 c -15.27165,-2.1616 -51.59772,-2.99777 -63.87749,-1.47036 -38.0435,4.732 -65.32484,17.29206 -86.40358,39.77933 -44.74885,47.7391 -55.11559,134.76244 -31.38592,263.46829 35.67722,193.50737 148.88512,479.90794 342.20153,865.72334 17.20287,34.333 31.76142,63.0062 32.35232,63.7182 0.86242,1.0392 2.09116,0.7818 6.22834,-1.3048 2.83468,-1.4296 5.48457,-3.1028 5.88865,-3.7181 z"
       id="path223" />
    <path
       style="fill:#0061b5"
       d="M 0,1000 V 0 h 1000 1000 v 569.21223 569.21227 l -2.75,-3.1154 c -1.5125,-1.7135 -14.45,-12.7462 -28.75,-24.5171 C 1807.8326,978.53973 1678.0873,875.83266 1554,782.6716 l -42.5,-31.90774 -31.2719,-65.60385 c -17.1996,-36.08212 -31.693,-66.02492 -32.2076,-66.53955 -0.581,-0.58093 -1.5141,-0.45569 -2.4612,0.33032 -0.839,0.69632 -10.1491,12.35475 -20.6892,25.90762 -10.54,13.55288 -19.6917,25.21966 -20.3372,25.92617 -0.9359,1.02452 -4.0947,-0.77314 -15.6032,-8.87957 -67.6884,-47.67903 -137.6575,-94.90262 -185.3467,-125.09426 L 1189.666,528 h -19.333 c -11.9179,0 -19.333,0.37471 -19.333,0.97695 0,0.53732 1.0125,1.61353 2.25,2.39158 35.8368,22.53154 63.5165,40.4209 99.25,64.14498 55.9391,37.13898 136.5,92.90316 136.5,94.48521 0,0.38114 -7.65,10.48042 -17,22.44283 -9.35,11.96242 -17,22.35523 -17,23.09513 0,0.73991 0.3723,1.57538 0.8273,1.85661 0.4551,0.28122 31.1676,6.62235 68.25,14.09139 37.0825,7.46904 68.445,14.01031 69.6944,14.53616 2.8956,1.21865 74.4028,54.9674 127.835,96.08786 105.879,81.48263 232.0114,182.413 338.0351,270.4935 35.2421,29.2778 33.6431,28.1407 36.0387,25.6295 1.0007,-1.0489 2.3555,-2.7677 3.0107,-3.8194 0.9228,-1.4814 1.2044,93.5716 1.25,421.8377 L 2000,2000 H 1000 0 Z m 940.90845,555.5464 c 5.63118,-2.8535 6.09155,-3.7269 6.09155,-11.5558 0,-5.6853 -1.02408,-7.9012 -37.28092,-80.6682 C 889.21457,1422.1701 865.51477,1374.1 857.05284,1356.5 682.92515,994.3308 590.54495,739.17768 569.94096,563.5 c -2.67467,-22.80526 -3.74104,-68.54419 -2.03235,-87.17202 6.76148,-73.7124 35.87299,-115.83471 89.36435,-129.30396 26.56319,-6.68867 56.31658,-6.83461 93.60241,-0.4591 55.9431,9.56572 128.36185,35.89134 209.97932,76.33158 L 977.20938,431 h 21.97864 c 17.12658,0 21.89158,-0.27595 21.58428,-1.25 -0.5454,-1.72875 -59.01144,-31.25215 -88.7723,-44.82703 -63.71846,-29.06403 -121.01261,-48.8351 -169,-58.31854 -37.97224,-7.50422 -73.5316,-8.54519 -102.5,-3.00062 -20.19799,3.86591 -40.75065,12.52811 -55,23.18052 -69.23284,51.7565 -79.40326,167.8394 -31.34068,357.71567 41.19531,162.74638 129.65139,385.3248 263.88379,664 9.00742,18.7 33.82506,68.9875 55.15031,111.75 32.46738,65.1053 39.10656,77.75 40.82312,77.75 1.12747,0 4.22883,-1.1041 6.89191,-2.4536 z"
       id="path221" />
    <path
       style="fill:#000103"
       d="m 946.65207,1575.5357 c -0.31269,-0.8149 -0.59629,-236.4927 -0.63024,-523.7286 -0.0339,-287.23582 -0.41152,-522.59679 -0.83907,-523.02434 -0.42755,-0.42755 -82.88108,-0.89108 -183.23006,-1.03006 L 579.5,527.5 v -48 -48 h 420.5 420.5 v 48 48 l -181.2543,0.14467 c -99.6899,0.0796 -181.927,0.40278 -182.7491,0.71825 -1.3232,0.50777 -1.5235,60.66922 -1.7457,524.35538 L 1054.5,1576.5 l -53.6397,0.2586 c -46.623,0.2248 -53.71407,0.065 -54.20823,-1.2229 z"
       id="path219" />
  </g>
</svg>
