<svg width="128" height="104" viewBox="0 0 128 104" fill="none" xmlns="http://www.w3.org/2000/svg">
  <path fill="#FFFFFF" d="
    M71.162 23.582
    C71.769 23.678 72.375 23.774 73.747 24.145
    C83.686 26.620 93.646 29.015 103.556 31.601
    C109.776 33.224 110.580 34.421 108.931 40.291
    C104.661 55.491 100.150 70.624 95.820 85.808
    C94.800 89.386 92.556 90.642 89.090 89.991
    C85.988 89.408 82.868 88.839 79.833 87.989
    C76.292 86.997 75.044 88.826 74.253 91.794
    C73.458 94.778 74.162 96.558 77.422 97.199
    C81.008 97.904 84.499 99.137 88.100 99.709
    C97.710 101.234 104.684 96.899 107.468 87.562
    C111.931 72.593 115.902 57.472 120.640 42.592
    C123.848 32.518 116.779 25.161 109.750 23.267
    C99.171 20.417 88.429 18.170 77.268 15.253
    C76.850 15.223 76.432 15.192 75.471 14.959
    C75.088 14.924 74.705 14.888 73.878 14.392
    C73.258 14.311 72.638 14.229 71.464 13.959
    C71.077 13.922 70.691 13.885 69.882 13.398
    C69.149 13.548 68.416 13.699 67.125 14.093
    C66.658 15.174 66.191 16.255 65.287 17.779
    C65.250 18.184 65.213 18.589 65.020 19.653
    C65.114 20.087 65.208 20.521 65.459 21.496
    C65.959 21.699 66.458 21.903 67.480 22.516
    C68.562 22.720 69.644 22.924 71.162 23.582Z"/>
</svg>
