<?xml version="1.0" encoding="UTF-8" standalone="no"?>
<!-- Created with Inkscape (http://www.inkscape.org/) -->

<svg
   version="1.1"
   id="svg175"
   width="2000"
   height="2000"
   viewBox="0 0 2000 2000"
   sodipodi:docname="logo1.svg"
   inkscape:version="1.2.2 (732a01da63, 2022-12-09)"
   xmlns:inkscape="http://www.inkscape.org/namespaces/inkscape"
   xmlns:sodipodi="http://sodipodi.sourceforge.net/DTD/sodipodi-0.dtd"
   xmlns="http://www.w3.org/2000/svg"
   xmlns:svg="http://www.w3.org/2000/svg">
  <defs
     id="defs179" />
  <sodipodi:namedview
     id="namedview177"
     pagecolor="#ffffff"
     bordercolor="#000000"
     borderopacity="0.25"
     inkscape:showpageshadow="2"
     inkscape:pageopacity="0.0"
     inkscape:pagecheckerboard="0"
     inkscape:deskcolor="#d1d1d1"
     showgrid="false"
     inkscape:zoom="0.29521708"
     inkscape:cx="574.15377"
     inkscape:cy="1370.1782"
     inkscape:window-width="1920"
     inkscape:window-height="1051"
     inkscape:window-x="-9"
     inkscape:window-y="-9"
     inkscape:window-maximized="1"
     inkscape:current-layer="g181" />
  <g
     inkscape:groupmode="layer"
     inkscape:label="Image"
     id="g181">
    <path
       style="fill:#e9f0f7"
       d="M 0,1000 V 0 H 1000 2000 V 1000 2000 H 1000 0 Z"
       id="path193" />
    <path
       style="fill:#5696ce"
       d="M 0,1000 V 0 h 1000 1000 v 571.5 c 0,314.325 -0.3553,571.5 -0.7895,571.5 -0.4343,0 -5.7218,-4.1135 -11.75,-9.1411 C 1844.4924,1014.6228 1676.0476,881.09766 1542,780.74509 c -29.975,-22.4403 -56.0983,-42.08858 -58.0518,-43.66286 -2.9775,-2.39953 -6.6808,-9.46867 -22.9049,-43.72228 -10.6442,-22.47297 -19.8986,-41.4591 -20.5653,-42.19139 -0.9798,-1.07603 -3.7757,1.95614 -14.5752,15.80647 -9.048,11.60397 -13.8662,17.0063 -14.9214,16.73035 -0.8572,-0.22415 -14.5911,-9.61194 -30.5199,-20.86177 -55.3659,-39.10248 -120.3143,-83.0523 -168.804,-114.22767 C 1178.872,527.53727 1181.8917,529 1171.1621,529 c -5.0391,0 -9.1621,0.35298 -9.1621,0.78439 0,0.43142 1.4625,1.62899 3.25,2.66128 37.2614,21.5186 238.75,157.87932 238.75,161.57795 0,0.47724 -5.0187,7.30465 -11.1527,15.17204 -6.134,7.86739 -11.1965,14.97526 -11.25,15.79528 -0.077,1.17638 9.8701,3.52462 47.1449,11.1299 29.5352,6.02613 48.2759,10.30865 50,11.42569 4.6375,3.0046 79.6334,59.15633 113.1512,84.71972 118.7991,90.60602 233.5685,182.26385 393.0791,313.92315 10.0192,8.2698 10.6361,8.6187 12.7775,7.2269 l 2.25,-1.4624 V 1575.9769 2000 H 1000 0 Z m 942.63197,552.9184 c 1.85241,-1.1448 3.36865,-2.6073 3.3694,-3.25 7.5e-4,-0.6426 -11.88248,-24.7934 -26.40719,-53.6684 C 733.12942,1125.3095 618.33167,839.9936 577.99639,647 567.50942,596.82263 562.5001,558.01261 561.34601,518 558.55211,421.13488 588.34076,361.8858 649,343.65781 c 45.34264,-13.62538 104.32485,-7.68802 181.11756,18.23195 42.4713,14.3354 82.08429,31.06396 132.22147,55.8371 L 987.17807,430 l 11.16096,-0.0318 c 10.28917,-0.0293 11.00477,-0.15324 9.16097,-1.58634 -1.1,-0.855 -14.375,-7.76054 -29.5,-15.34564 -142.29344,-71.35937 -248.09882,-99.02933 -319.49162,-83.55267 -47.74621,10.35051 -80.24643,40.76818 -96.4603,90.27929 -8.68266,26.51361 -11.43637,47.7193 -11.45822,88.23716 -0.0174,32.21334 1.07709,47.21793 5.94565,81.51202 C 578.7898,746.27081 658.91996,972.28347 798.5037,1272 c 50.53282,108.5049 136.67659,283 139.70987,283 0.5777,0 2.56598,-0.9367 4.4184,-2.0816 z"
       id="path191" />
    <path
       style="fill:#0061b5"
       d="M 0,1000 V 0 h 1000 1000 l -0.022,571.75 c -0.021,541.8631 -0.1126,571.6406 -1.75,569.6577 -1.8906,-2.2894 -15.5652,-13.7385 -62.7278,-52.5186 C 1789.8067,969.09064 1641.6608,852.58216 1522,763.69433 c -20.625,-15.3209 -38.0835,-28.4193 -38.7966,-29.10754 -0.7131,-0.68824 -10.3881,-20.305 -21.5,-43.59281 -11.1119,-23.2878 -20.7429,-42.51812 -21.4024,-42.73403 -1.4195,-0.46481 -1.853,0.0249 -16.5874,18.74005 -6.2787,7.975 -12.0921,14.44846 -12.9186,14.38546 -0.8266,-0.063 -13.1501,-8.34782 -27.3856,-18.4107 -55.2813,-39.07762 -114.3925,-79.15125 -165.6503,-112.3004 C 1180.3873,526.50549 1183.524,528 1170.1691,528 c -12.2063,0 -13.9389,0.97194 -7.9191,4.44246 1.7875,1.03053 16.3,10.20062 32.25,20.37798 50.5355,32.24566 114.9819,75.61189 171,115.06655 12.1,8.52227 25.2545,17.77158 29.2322,20.55403 3.9777,2.78244 7.2402,5.34679 7.25,5.69857 0.01,0.35177 -5.1572,7.29307 -11.4822,15.4251 C 1380.8172,722.01385 1377.2267,728 1379.4427,728 c 2.7028,0 94.8423,19.3184 97.0573,20.34949 3.4802,1.62006 75.3412,55.23958 125.5,93.64257 108.2622,82.88869 218.8304,170.98374 341.9629,272.45844 20.0546,16.5272 39.617,32.637 43.472,35.7995 7.5148,6.1649 9.0991,6.7321 11.1731,4 1.1052,-1.456 1.3337,69.439 1.3602,422 L 2000,2000 H 1000 0 Z m 942.02384,554.9878 c 2.53694,-1.2942 4.17514,-2.9324 4.59156,-4.5916 0.52331,-2.085 -7.6058,-19.191 -42.40763,-89.2378 C 794.55942,1240.4653 721.43907,1076.6843 663.49951,922 608.4707,775.08672 577.53122,661.27315 565.9077,563 c -2.94838,-24.92755 -3.70815,-70.98818 -1.50929,-91.5 6.55836,-61.17898 28.34922,-99.89895 67.13262,-119.28731 31.17995,-15.58728 76.18635,-18.23943 129.46897,-7.62937 40.17004,7.99898 90.82539,24.91203 143.3687,47.86862 19.29152,8.42862 57.36032,26.31796 73.4416,34.51178 L 985.73194,431 h 13.13403 C 1009.4643,431 1012,430.7294 1012,429.59838 c 0,-1.53539 -57.2274,-30.4262 -85.5,-43.164 -78.6912,-35.45316 -145.45925,-56.01721 -199.35595,-61.40009 -13.43338,-1.34164 -39.59843,-1.32354 -51.93346,0.0359 -27.78835,3.06263 -52.61555,12.97648 -72.39957,28.91016 -29.01325,23.36674 -46.45936,61.30816 -52.42815,114.01961 -1.97751,17.46375 -2.21189,56.72024 -0.46568,78 14.33179,174.65162 109.169,441.60659 291.13185,819.50004 22.87427,47.5044 92.80751,187.6309 94.69894,189.75 1.91692,2.1477 1.51971,2.1642 6.27586,-0.2622 z"
       id="path189" />
    <path
       style="fill:#000103"
       d="m 946.63589,1575.4935 c -0.32158,-0.838 -0.60176,-236.5124 -0.6226,-523.7209 -0.0208,-287.20847 -0.39115,-522.55046 -0.8229,-522.98221 -0.43175,-0.43175 -82.88871,-0.89871 -183.23769,-1.03769 L 579.5,527.5 v -48 -48 h 420.5 420.5 v 48 48 l -181.369,0.18867 c -99.7529,0.10377 -181.99,0.42698 -182.749,0.71825 -1.1706,0.44918 -1.4182,80.04762 -1.6311,524.31138 L 1054.5,1576.5 l -53.6397,0.2586 c -47.28644,0.228 -53.70895,0.078 -54.22441,-1.2651 z"
       id="path187" />
  </g>
</svg>
