<?xml version="1.0" encoding="UTF-8" standalone="no"?>
<!-- Created with Inkscape (http://www.inkscape.org/) -->

<svg
   version="1.1"
   id="svg114"
   width="2000"
   height="2000"
   viewBox="0 0 2000 2000"
   sodipodi:docname="logo3.svg"
   inkscape:version="1.2.2 (732a01da63, 2022-12-09)"
   xmlns:inkscape="http://www.inkscape.org/namespaces/inkscape"
   xmlns:sodipodi="http://sodipodi.sourceforge.net/DTD/sodipodi-0.dtd"
   xmlns="http://www.w3.org/2000/svg"
   xmlns:svg="http://www.w3.org/2000/svg">
  <defs
     id="defs118" />
  <sodipodi:namedview
     id="namedview116"
     pagecolor="#ffffff"
     bordercolor="#000000"
     borderopacity="0.25"
     inkscape:showpageshadow="2"
     inkscape:pageopacity="0.0"
     inkscape:pagecheckerboard="0"
     inkscape:deskcolor="#d1d1d1"
     showgrid="false"
     inkscape:zoom="0.216"
     inkscape:cx="886.57407"
     inkscape:cy="1303.2407"
     inkscape:window-width="1920"
     inkscape:window-height="1051"
     inkscape:window-x="-9"
     inkscape:window-y="-9"
     inkscape:window-maximized="1"
     inkscape:current-layer="g120" />
  <g
     inkscape:groupmode="layer"
     inkscape:label="Image"
     id="g120">
    <path
       style="fill:#f7fafc"
       d="M 0,1000 V 0 H 1000 2000 V 1000 2000 H 1000 0 Z"
       id="path132" />
    <path
       style="fill:#5696ce"
       d="M 0,1000 V 0 h 1000 1000 v 558.03518 c 0,531.16822 -0.084,557.98812 -1.75,557.05662 -0.9625,-0.5382 -15.925,-12.5319 -33.25,-26.6526 -133.1111,-108.49202 -296.9638,-236.34915 -410,-319.93023 -18.425,-13.62379 -34.6914,-25.94918 -36.1476,-27.38975 -1.5838,-1.5668 -15.9889,-30.74564 -35.8508,-72.61922 -18.2617,-38.5 -33.5207,-70.34047 -33.9089,-70.75659 -1.0244,-1.09804 -3.5986,1.94009 -26.0598,30.75659 -11.1463,14.3 -20.8872,26.35911 -21.6465,26.79803 -0.9426,0.54494 -10.1824,-5.34859 -29.1334,-18.58261 -50.9429,-35.57479 -124.2114,-84.69368 -161.8405,-108.49713 L 1205.3249,525 h -35.6624 c -19.6144,0 -35.6465,0.3375 -35.627,0.75 0.02,0.4125 3.732,2.96718 8.25,5.67706 35.1642,21.09146 134.1843,86.24806 193.2145,127.13798 38.7619,26.85015 40.7525,28.33466 40.1386,29.93434 -0.2801,0.72989 -7.7953,10.62417 -16.7005,21.98729 -8.9543,11.42579 -15.7994,21.0282 -15.3147,21.48349 0.4822,0.45279 30.3516,6.77027 66.3766,14.03885 36.025,7.26857 66.4,13.67599 67.5,14.23871 9.8956,5.06221 163.7765,121.31701 255,192.64872 87.1427,68.14076 257.4981,204.83386 265.75,213.23776 1.661,1.6915 1.75,22.9393 1.75,417.824 L 2000,2000 H 1000 0 Z m 946,502.8892 v -38.9928 l -7.86698,-15.1982 C 933.80618,1440.3392 923.07178,1419.775 914.27879,1403 824.11476,1230.9877 742.42298,1059.3261 687.29185,926.02488 588.14152,686.28989 548.21365,514.35258 570.05069,421.1612 c 9.48666,-40.48512 30.94349,-66.85571 63.14456,-77.60508 61.1824,-20.42393 160.68848,3.09833 300.73441,71.09067 l 23.42966,11.3751 41.07034,-0.26094 L 1039.5,425.5 l -20,-10.79074 C 992.42295,400.10019 936.64741,372.25955 914,362.04842 795.2784,308.51989 706.75287,288.64636 642.37506,301.06999 579.3014,313.24196 541.39329,355.07347 529.61541,425.5 c -5.08432,30.40199 -5.10516,70.52783 -0.0592,114 21.58787,185.9852 146.45356,495.9174 371.456,922 35.07444,66.4198 43.2755,81.4402 44.16543,80.8902 0.45231,-0.2795 0.82238,-18.055 0.82238,-39.501 z"
       id="path130" />
    <path
       style="fill:#0061b5"
       d="M 0,1000 V 0 h 1000 1000 v 557.5 c 0,371 -0.3345,557.5 -1,557.5 -0.55,0 -1,-0.4356 -1,-0.968 0,-2.3026 -173.6811,-141.36873 -270,-216.18844 -56.0242,-43.51908 -138.0362,-105.61597 -204.4488,-154.8022 l -4.9489,-3.66519 -34.1944,-71.93808 c -20.1782,-42.45085 -34.8045,-72.06128 -35.6829,-72.23864 -0.9354,-0.18887 -9.9165,10.48675 -24.1699,28.73 -12.4747,15.96681 -23.0785,29.27598 -23.5638,29.57594 -0.4854,0.29996 -12.9445,-7.86034 -27.6869,-18.134 -53.5251,-37.30041 -145.0554,-98.56272 -162.3923,-108.69112 L 1206.3243,524 h -37.6622 c -29.4836,0 -37.6537,0.27144 -37.6234,1.25 0.021,0.6875 6.2088,5.04827 13.75,9.69059 54.9418,33.82181 142.3386,91.74826 212.7113,140.98468 8.8,6.15694 16.1127,11.50548 16.2503,11.88563 0.1377,0.38015 -7.22,10.26088 -16.3504,21.95718 -9.4652,12.12509 -16.3756,21.85296 -16.0768,22.63157 0.6338,1.65157 0.3985,1.59938 74.6769,16.56337 32.725,6.59272 60.4,12.50807 61.5,13.14522 3.2001,1.85357 54.8366,39.99882 94.5,69.80965 121.6327,91.41854 256.7447,197.66411 395,310.60911 16.225,13.2547 30.2875,24.3944 31.25,24.7549 1.6628,0.6227 1.75,21.3827 1.75,416.6867 L 2000,2000 H 1000 0 Z M 946.78156,1502.9184 946.5,1460.5 929.86221,1429 C 890.343,1354.1791 834.57084,1244.0246 803.53825,1179.5 660.01886,881.08706 584.63406,670.66483 568.34387,523 c -2.17337,-19.70081 -2.46858,-66.05238 -0.50951,-80 6.88315,-49.00476 24.46258,-78.59482 55.49561,-93.4114 9.2909,-4.4359 19.0564,-7.35387 32.67003,-9.76195 10.71449,-1.89525 45.33431,-1.57425 60,0.55633 58.54026,8.50452 128.83032,32.98941 216,75.24158 L 956.5,427.5 h 42.41625 c 30.63385,0 42.52095,-0.3138 42.79325,-1.12965 0.4633,-1.38853 -2.1717,-2.93583 -31.7892,-18.66649 C 890.83854,344.45612 797.67107,309.03761 722.5,298.43826 c -17.56136,-2.4762 -54.4945,-3.00894 -68.89391,-0.99375 -45.46821,6.36326 -77.80392,25.12186 -99.67937,57.82602 -30.73486,45.94911 -37.88457,118.67682 -21.35536,217.22947 19.12569,114.03379 71.31665,267.98962 154.92281,457 37.7667,85.3801 71.25948,156.0695 122.55081,258.6541 34.09128,68.1839 72.1001,142.0485 98.4617,191.3459 2.35288,4.4 11.13375,20.825 19.51304,36.5 8.37929,15.675 15.69867,29.0816 16.2653,29.7924 0.58774,0.7373 1.40557,0.917 1.90416,0.4184 0.48067,-0.4806 0.74724,-19.9622 0.59238,-43.2924 z"
       id="path128" />
    <path
       style="fill:#000103"
       d="m 946.75593,1571.7586 c -0.25557,-0.6922 -0.55937,-236.3836 -0.6751,-523.7586 -0.11573,-287.375 -0.54005,-522.83629 -0.94293,-523.2473 -0.40288,-0.41102 -82.83622,-0.86102 -183.1852,-1 L 579.5,523.5 v -48 -48 h 420.5 420.5 v 48 48 l -181.736,0.036 c -121.3405,0.024 -182.0726,0.37264 -182.749,1.04905 -0.6809,0.68089 -1.0954,172.65581 -1.2641,524.46405 L 1054.5,1572.5 l -53.6397,0.2586 c -42.38404,0.2044 -53.7372,-0.01 -54.10437,-1 z"
       id="path126" />
  </g>
</svg>
